<svg width="13" height="20" viewBox="0 0 13 20" fill="none" xmlns="http://www.w3.org/2000/svg">
<path d="M12.25 20H0V0H12.25V20Z" stroke="#E5E7EB"/>
<path d="M12.25 16.75H0V2.75H12.25V16.75Z" stroke="#E5E7EB"/>
<path d="M7 4.9375C7 4.45352 6.60898 4.0625 6.125 4.0625C5.64102 4.0625 5.25 4.45352 5.25 4.9375V8.875H1.3125C0.828516 8.875 0.4375 9.26602 0.4375 9.75C0.4375 10.234 0.828516 10.625 1.3125 10.625H5.25V14.5625C5.25 15.0465 5.64102 15.4375 6.125 15.4375C6.60898 15.4375 7 15.0465 7 14.5625V10.625H10.9375C11.4215 10.625 11.8125 10.234 11.8125 9.75C11.8125 9.26602 11.4215 8.875 10.9375 8.875H7V4.9375Z" fill="white"/>
</svg>
