<svg width="14" height="12" viewBox="0 0 14 12" fill="none" xmlns="http://www.w3.org/2000/svg">
<g clip-path="url(#clip0_5_1453)">
<path d="M6.75002 0.75C4.85627 0.75 3.33987 1.6125 2.23596 2.63906C1.13909 3.65625 0.405493 4.875 0.0586182 5.71172C-0.0187256 5.89687 -0.0187256 6.10312 0.0586182 6.28828C0.405493 7.125 1.13909 8.34375 2.23596 9.36094C3.33987 10.3875 4.85627 11.25 6.75002 11.25C8.64377 11.25 10.1602 10.3875 11.2641 9.36094C12.361 8.34141 13.0946 7.125 13.4438 6.28828C13.5211 6.10312 13.5211 5.89687 13.4438 5.71172C13.0946 4.875 12.361 3.65625 11.2641 2.63906C10.1602 1.6125 8.64377 0.75 6.75002 0.75ZM3.37502 6C3.37502 5.10489 3.7306 4.24645 4.36354 3.61351C4.99647 2.98058 5.85492 2.625 6.75002 2.625C7.64513 2.625 8.50357 2.98058 9.13651 3.61351C9.76944 4.24645 10.125 5.10489 10.125 6C10.125 6.89511 9.76944 7.75355 9.13651 8.38649C8.50357 9.01942 7.64513 9.375 6.75002 9.375C5.85492 9.375 4.99647 9.01942 4.36354 8.38649C3.7306 7.75355 3.37502 6.89511 3.37502 6ZM6.75002 4.5C6.75002 5.32734 6.07737 6 5.25002 6C5.08362 6 4.92424 5.97187 4.77424 5.92266C4.64534 5.88047 4.49534 5.96016 4.50002 6.09609C4.50706 6.25781 4.53049 6.41953 4.57502 6.58125C4.89612 7.78125 6.13127 8.49375 7.33127 8.17266C8.53127 7.85156 9.24377 6.61641 8.92268 5.41641C8.66253 4.44375 7.80237 3.78984 6.84612 3.75C6.71018 3.74531 6.63049 3.89297 6.67268 4.02422C6.7219 4.17422 6.75002 4.33359 6.75002 4.5Z" fill="#B0B0B0"/>
</g>
<defs>
<clipPath id="clip0_5_1453">
<path d="M0 0H13.5V12H0V0Z" fill="white"/>
</clipPath>
</defs>
</svg>
