<svg width="16" height="14" viewBox="0 0 16 14" fill="none" xmlns="http://www.w3.org/2000/svg">
<g clip-path="url(#clip0_5_2045)">
<path d="M4.14543 1.15938C3.97864 0.978906 3.74621 0.875 3.50012 0.875C3.25403 0.875 3.0216 0.978906 2.85481 1.15938L0.448558 3.78437C0.123167 4.13984 0.145042 4.69492 0.503245 5.02031C0.861448 5.3457 1.41379 5.32383 1.73918 4.96563L2.62512 4.00039V12.25C2.62512 12.734 3.01614 13.125 3.50012 13.125C3.9841 13.125 4.37512 12.734 4.37512 12.25V4.00039L5.26106 4.96836C5.58645 5.32383 6.14153 5.34844 6.497 5.02305C6.85246 4.69766 6.87707 4.14258 6.55168 3.78711L4.14543 1.16211V1.15938ZM8.75012 0.875C8.26614 0.875 7.87512 1.26602 7.87512 1.75C7.87512 2.23398 8.26614 2.625 8.75012 2.625H9.62512C10.1091 2.625 10.5001 2.23398 10.5001 1.75C10.5001 1.26602 10.1091 0.875 9.62512 0.875H8.75012ZM8.75012 4.375C8.26614 4.375 7.87512 4.76602 7.87512 5.25C7.87512 5.73398 8.26614 6.125 8.75012 6.125H11.3751C11.8591 6.125 12.2501 5.73398 12.2501 5.25C12.2501 4.76602 11.8591 4.375 11.3751 4.375H8.75012ZM8.75012 7.875C8.26614 7.875 7.87512 8.26602 7.87512 8.75C7.87512 9.23398 8.26614 9.625 8.75012 9.625H13.1251C13.6091 9.625 14.0001 9.23398 14.0001 8.75C14.0001 8.26602 13.6091 7.875 13.1251 7.875H8.75012ZM8.75012 11.375C8.26614 11.375 7.87512 11.766 7.87512 12.25C7.87512 12.734 8.26614 13.125 8.75012 13.125H14.8751C15.3591 13.125 15.7501 12.734 15.7501 12.25C15.7501 11.766 15.3591 11.375 14.8751 11.375H8.75012Z" fill="#5A5A5A"/>
</g>
<defs>
<clipPath id="clip0_5_2045">
<path d="M0 0H15.75V14H0V0Z" fill="white"/>
</clipPath>
</defs>
</svg>
