<svg width="25" height="28" viewBox="0 0 25 28" fill="none" xmlns="http://www.w3.org/2000/svg">
<path d="M25 28H0V0H25V28Z" stroke="#E5E7EB"/>
<path d="M25 23.5H0V3.5H25V23.5Z" stroke="#E5E7EB"/>
<path d="M22.6484 13.957C24.8555 11.75 24.8555 8.17574 22.6484 5.96871C20.6953 4.01558 17.6172 3.76168 15.3711 5.36715L15.3086 5.41011C14.7461 5.81246 14.6172 6.59371 15.0195 7.1523C15.4219 7.7109 16.2031 7.84371 16.7617 7.44136L16.8242 7.3984C18.0781 6.50386 19.793 6.64449 20.8789 7.73433C22.1094 8.9648 22.1094 10.957 20.8789 12.1875L16.4961 16.5781C15.2656 17.8086 13.2734 17.8086 12.043 16.5781C10.9531 15.4882 10.8125 13.7734 11.707 12.5234L11.75 12.4609C12.1523 11.8984 12.0195 11.1171 11.4609 10.7187C10.9023 10.3203 10.1172 10.4492 9.71875 11.0078L9.67578 11.0703C8.06641 13.3125 8.32031 16.3906 10.2734 18.3437C12.4805 20.5507 16.0547 20.5507 18.2617 18.3437L22.6484 13.957ZM2.35156 13.0429C0.144531 15.25 0.144531 18.8242 2.35156 21.0312C4.30469 22.9843 7.38281 23.2382 9.62891 21.6328L9.69141 21.5898C10.2539 21.1875 10.3828 20.4062 9.98047 19.8476C9.57812 19.289 8.79688 19.1562 8.23828 19.5586L8.17578 19.6015C6.92188 20.4961 5.20703 20.3554 4.12109 19.2656C2.89062 18.0312 2.89062 16.039 4.12109 14.8086L8.50391 10.4218C9.73438 9.19136 11.7266 9.19136 12.957 10.4218C14.0469 11.5117 14.1875 13.2265 13.293 14.4804L13.25 14.5429C12.8477 15.1054 12.9805 15.8867 13.5391 16.2851C14.0977 16.6836 14.8828 16.5546 15.2812 15.9961L15.3242 15.9336C16.9336 13.6875 16.6797 10.6093 14.7266 8.65621C12.5195 6.44918 8.94531 6.44918 6.73828 8.65621L2.35156 13.0429Z" fill="white"/>
</svg>
