<svg width="13" height="14" viewBox="0 0 13 14" fill="none" xmlns="http://www.w3.org/2000/svg">
<g clip-path="url(#clip0_5_248)">
<path d="M0 2.1875C0 1.46289 0.587891 0.875 1.3125 0.875H3.9375C4.66211 0.875 5.25 1.46289 5.25 2.1875V4.8125C5.25 5.53711 4.66211 6.125 3.9375 6.125H1.3125C0.587891 6.125 0 5.53711 0 4.8125V2.1875ZM1.75 2.625V4.375H3.5V2.625H1.75ZM0 9.1875C0 8.46289 0.587891 7.875 1.3125 7.875H3.9375C4.66211 7.875 5.25 8.46289 5.25 9.1875V11.8125C5.25 12.5371 4.66211 13.125 3.9375 13.125H1.3125C0.587891 13.125 0 12.5371 0 11.8125V9.1875ZM1.75 9.625V11.375H3.5V9.625H1.75ZM8.3125 0.875H10.9375C11.6621 0.875 12.25 1.46289 12.25 2.1875V4.8125C12.25 5.53711 11.6621 6.125 10.9375 6.125H8.3125C7.58789 6.125 7 5.53711 7 4.8125V2.1875C7 1.46289 7.58789 0.875 8.3125 0.875ZM10.5 2.625H8.75V4.375H10.5V2.625ZM7 8.3125C7 8.07188 7.19688 7.875 7.4375 7.875H9.1875C9.42813 7.875 9.625 8.07188 9.625 8.3125C9.625 8.55312 9.82187 8.75 10.0625 8.75H10.9375C11.1781 8.75 11.375 8.55312 11.375 8.3125C11.375 8.07188 11.5719 7.875 11.8125 7.875C12.0531 7.875 12.25 8.07188 12.25 8.3125V10.9375C12.25 11.1781 12.0531 11.375 11.8125 11.375H10.0625C9.82187 11.375 9.625 11.1781 9.625 10.9375C9.625 10.6969 9.42813 10.5 9.1875 10.5C8.94687 10.5 8.75 10.6969 8.75 10.9375V12.6875C8.75 12.9281 8.55313 13.125 8.3125 13.125H7.4375C7.19688 13.125 7 12.9281 7 12.6875V8.3125ZM10.0625 13.125C9.94647 13.125 9.83519 13.0789 9.75314 12.9969C9.67109 12.9148 9.625 12.8035 9.625 12.6875C9.625 12.5715 9.67109 12.4602 9.75314 12.3781C9.83519 12.2961 9.94647 12.25 10.0625 12.25C10.1785 12.25 10.2898 12.2961 10.3719 12.3781C10.4539 12.4602 10.5 12.5715 10.5 12.6875C10.5 12.8035 10.4539 12.9148 10.3719 12.9969C10.2898 13.0789 10.1785 13.125 10.0625 13.125ZM11.8125 13.125C11.6965 13.125 11.5852 13.0789 11.5031 12.9969C11.4211 12.9148 11.375 12.8035 11.375 12.6875C11.375 12.5715 11.4211 12.4602 11.5031 12.3781C11.5852 12.2961 11.6965 12.25 11.8125 12.25C11.9285 12.25 12.0398 12.2961 12.1219 12.3781C12.2039 12.4602 12.25 12.5715 12.25 12.6875C12.25 12.8035 12.2039 12.9148 12.1219 12.9969C12.0398 13.0789 11.9285 13.125 11.8125 13.125Z" fill="white"/>
</g>
<defs>
<clipPath id="clip0_5_248">
<path d="M0 0H12.25V14H0V0Z" fill="white"/>
</clipPath>
</defs>
</svg>
