<svg width="14" height="14" viewBox="0 0 14 14" fill="none" xmlns="http://www.w3.org/2000/svg">
<path d="M14 14H0V0H14V14Z" stroke="#E5E7EB"/>
<path d="M8.39453 0.951625C8.08008 1.09108 7.875 1.40553 7.875 1.75006V3.50006H4.8125C2.15469 3.50006 0 5.65475 0 8.31256C0 11.4106 2.22852 12.7942 2.73984 13.0731C2.8082 13.1114 2.88477 13.1251 2.96133 13.1251C3.25938 13.1251 3.5 12.8817 3.5 12.5864C3.5 12.3813 3.38242 12.1926 3.23203 12.0532C2.975 11.8098 2.625 11.3313 2.625 10.5001C2.625 9.05084 3.80078 7.87506 5.25 7.87506H7.875V9.62506C7.875 9.96959 8.07734 10.284 8.39453 10.4235C8.71172 10.563 9.07812 10.5055 9.33516 10.2758L13.7102 6.33834C13.8934 6.17155 14 5.93639 14 5.68756C14 5.43873 13.8961 5.20358 13.7102 5.03678L9.33516 1.09928C9.07812 0.866859 8.70898 0.809438 8.39453 0.951625Z" fill="white"/>
</svg>
